<svg xmlns="http://www.w3.org/2000/svg" version="1.1"
  xmlns:xlink="http://www.w3.org/1999/xlink">
  <symbol viewBox="0 0 320 320">
    <g id="halloweenBG">
      <rect class="halloween-bg-sky"
        width="320" height="320" 
        fill="url(#BGGradient)"
        stroke="transparent"
      />
      <path class="halloween-bg-ground"
        d="
          M 0,250
          c 0,-10 320,-10 320,0
          v 70
          h -320
        "
        fill="rgb(0,0,0)"
        stroke="rgb(0,0,0)"
      />
      <path class="halloween-bg-graveyard"
        d="
          M 40,250
          l -3,-20
          l -5,2
          l -1,-2
          l 5,-2
          l -1,-4
          l 2, -1
          l 1, 4
          l 4, -2
          l 1, 2
          l -4, 2
          l 4,22

          M 50,250
          c -20,-34 40,-34 20,0

          M 80,250
          c -4,-20 14,-20 10,0
          M 84,250
          l 0,-24
          l -5,1
          l 0,-3
          l 5,0
          l -1,-5
          l 3, -1
          l 0, 5
          l 5, 0
          l 0, 3
          l -5, 0
          l 0,24

          M 110,250
          v -30
          h -10
          v -5
          h 10
          v -6
          h 5
          v 6
          h 10
          v 5
          h -10
          v 30

          M 103,250
          c 0,-15 20,-15 20,0

          M 140,250
          v -40
          c 0,-10 30,-10 30,0
          v 40

          M 176,250
          l -3,-20
          l -5,2
          l -1,-2
          l 5,-2
          l -1,-4
          l 2, -1
          l 1, 4
          l 4, -2
          l 1, 2
          l -4, 2
          l 4,22

          M 210,250
          l 4,-30
          c 4,-10 34,-6 30,0
          l -4,30

          M 250,250
          c -4,-20 14,-20 10,0
          M 254,250
          l 0,-24
          l -5,1
          l 0,-3
          l 5,0
          l -1,-5
          l 3, -1
          l 0, 5
          l 5, 0
          l 0, 3
          l -5, 0
          l 0,24

          M 270,254
          l -3,-20
          l -5,2
          l -1,-2
          l 5,-2
          l -1,-4
          l 2, -1
          l 1, 4
          l 4, -2
          l 1, 2
          l -4, 2
          l 4,22
        "
        fill="transparent"
        stroke="rgb(0,0,0)"
        stroke-dasharray="2000"
        stroke-dashoffset="0"
      >
        <animate attributeName="stroke-dashoffset"
          values="2000;0" dur="20s"
          repeatCount="1"
        />
        <animate attributeName="fill"
          values="transparent;rgb(0,0,0)"
          dur="1s"
          fill="freeze"
          begin="1.5s"
          repeatCount="1"
        />
      </path>
    </g>
  </symbol>
 </svg>
