<svg xmlns="http://www.w3.org/2000/svg" version="1.1"
  xmlns:xlink="http://www.w3.org/1999/xlink">
  <symbol viewBox="0 0 320 320">
    <path id="happyPath" d="
      M 20,20
      v 280
      M 20,180
      h 280
      M 300,20
      v 280

      M 20,300
      l 140,-280
      l 140,280
      M 80,150
      h 160

      M 20,20
      v 280
      M 20,20
      c 340,0 340,160 0,150

      M 20,20
      v 280
      M 20,20
      c 340,0 340,160 0,150

      M 20,20
      l 140,140
      M 300,20
      l -140,140
      v 140
    " />
    <path id="halloweenPath" d="
      M 20,20
      v 280
      M 20,180
      h 280
      M 300,20
      v 280

      M 20,300
      l 140,-280
      l 140,280
      M 80,150
      h 160

      M 20,20
      v 280
      h 280

      M 20,20
      v 280
      h 280

      M 280,160
      a 120,120 0 1 1 0,-1 Z

      M 20,20
      l 80,280
      l 60,-180
      l 60,180
      l 80,-280

      M 20,20
      h 280
      M 20,20
      v 280
      M 20,160
      h 200
      M 20,300
      h 280

      M 20,20
      h 280
      M 20,20
      v 280
      M 20,160
      h 200
      M 20,300
      h 280

      M 20,300
      v -280
      l 280,280
      v -280
    " />
  </symbol>
 </svg>
